# xmcd
#
# Track frame offsets:
#	183
#	13200
#	31883
#	45158
#	58133
#	74633
#	88283
#	111233
#	120308
#	149333
#	169133
#
# Disc length: 2496 seconds
#
# Revision: 0
# Processed by: cddbd v1.4PL0 Copyright (c) Steve Scherf et al.
# Submitted via: dBpowerAMP V4.0
#
DISCID=9a09be0b
DTITLE=Pee Wee Crayton - Things I Used To Do
DYEAR=1900
DGENRE=Blues
TTITLE0=Every Night
TTITLE1=But On The Other Hand
TTITLE2=Peace Of Mind
TTITLE3=Let The Good Times Roll
TTITLE4=Blues After Hours
TTITLE5=You Were Wrong
TTITLE6=Things I Used To Do
TTITLE7=Little Bitty Things
TTITLE8=S.K. Blues
TTITLE9=Long Tall Texan
TTITLE10=My Kind Of Woman
EXTD=
EXTT0=
EXTT1=
EXTT2=
EXTT3=
EXTT4=
EXTT5=
EXTT6=
EXTT7=
EXTT8=
EXTT9=
EXTT10=
PLAYORDER=
